# Blender v2.93.0 OBJ File: 'trees.blend'
# www.blender.org
mtllib tree-003.mtl
o Tree.003_Cube.002
v -0.155707 -0.155707 0.000000
v -0.101962 -0.101962 0.416536
v -0.155707 0.155706 0.000000
v -0.101962 0.101962 0.416536
v 0.155707 -0.155707 0.000000
v 0.101962 -0.101962 0.416536
v 0.155707 0.155706 0.000000
v 0.101962 0.101962 0.416536
v -0.306278 -0.306278 0.477504
v -0.306278 0.306278 0.477504
v 0.306278 0.306278 0.477504
v 0.306278 -0.306278 0.477504
v -0.000000 -0.000000 2.938926
v 0.452788 0.452788 0.838620
v 0.323049 0.323049 2.145655
v 0.323049 -0.323049 2.145655
v 0.452788 -0.452788 0.838620
v -0.452788 -0.452788 0.838620
v -0.323049 -0.323049 2.145655
v -0.323049 0.323049 2.145655
v -0.452788 0.452788 0.838620
vt 0.817941 0.450784
vt 0.817941 0.450784
vt 0.817941 0.450784
vt 0.817941 0.450784
vt 0.817941 0.450784
vt 0.817941 0.450784
vt 0.817941 0.450784
vt 0.817941 0.450784
vt 0.945902 0.805137
vt 0.945902 0.805137
vt 0.945902 0.805137
vt 0.945902 0.805137
vt 0.945902 0.805137
vt 0.945902 0.805137
vt 0.945902 0.805137
vt 0.945902 0.805137
vt 0.945902 0.805137
vt 0.945902 0.805137
vt 0.945902 0.805137
vt 0.945902 0.805137
vt 0.945902 0.805137
vt 0.945902 0.805137
vt 0.945902 0.805137
vt 0.945902 0.805137
vt 0.945902 0.805137
vn -0.9918 0.0000 0.1280
vn -0.0000 0.9918 0.1280
vn 0.9918 0.0000 0.1280
vn 0.0000 -0.9918 0.1280
vn 0.2859 0.0000 -0.9582
vn 0.9261 -0.0000 0.3772
vn -0.2859 -0.0000 -0.9582
vn -0.0000 -0.2859 -0.9582
vn 0.0000 0.2859 -0.9582
vn -0.9261 0.0000 0.3772
vn 0.0000 -0.9261 0.3772
vn -0.0000 0.9261 0.3772
vn -0.0000 0.9266 -0.3760
vn -0.0000 0.9951 0.0988
vn 0.0000 -0.9266 -0.3760
vn 0.0000 -0.9951 0.0988
vn -0.9266 -0.0000 -0.3760
vn -0.9951 0.0000 0.0988
vn 0.9266 0.0000 -0.3760
vn 0.9951 0.0000 0.0988
usemtl Tree
s off
f 1/1/1 2/2/1 4/3/1 3/4/1
f 3/4/2 4/3/2 8/5/2 7/6/2
f 7/6/3 8/5/3 6/7/3 5/8/3
f 5/8/4 6/7/4 2/2/4 1/1/4
f 6/9/5 8/10/5 11/11/5 12/12/5
f 16/13/6 15/14/6 13/15/6
f 4/16/7 2/17/7 9/18/7 10/19/7
f 2/17/8 6/9/8 12/12/8 9/18/8
f 8/10/9 4/16/9 10/19/9 11/11/9
f 20/20/10 19/21/10 13/15/10
f 19/21/11 16/13/11 13/15/11
f 15/14/12 20/20/12 13/15/12
f 11/11/13 10/19/13 21/22/13 14/23/13
f 14/23/14 21/22/14 20/20/14 15/14/14
f 9/18/15 12/12/15 17/24/15 18/25/15
f 18/25/16 17/24/16 16/13/16 19/21/16
f 10/19/17 9/18/17 18/25/17 21/22/17
f 21/22/18 18/25/18 19/21/18 20/20/18
f 12/12/19 11/11/19 14/23/19 17/24/19
f 17/24/20 14/23/20 15/14/20 16/13/20
