# Blender v2.93.0 OBJ File: 'worker.blend'
# www.blender.org
mtllib worker-hammer.mtl
o Hammer_Cube.001
v 0.023658 -0.084008 -0.017616
v 0.023658 -0.084008 0.017616
v 0.023658 0.160940 -0.017616
v 0.023658 0.160940 0.017616
v 0.103738 -0.084008 0.049394
v 0.103738 -0.084008 -0.049394
v 0.103738 -0.203448 0.049394
v 0.103738 -0.203448 -0.049394
v -0.023658 -0.084008 -0.017616
v -0.023658 -0.084008 0.017616
v -0.023658 0.160940 -0.017616
v -0.023658 0.160940 0.017616
v 0.000000 0.160940 -0.017616
v 0.000000 0.160940 0.017616
v 0.000000 -0.084008 -0.017616
v 0.000000 -0.084008 0.017616
v -0.103738 -0.084008 0.049394
v -0.103738 -0.084008 -0.049394
v 0.000000 -0.084008 -0.049394
v 0.000000 -0.084008 0.049394
v -0.103738 -0.203448 0.049394
v -0.103738 -0.203448 -0.049394
v 0.000000 -0.203448 -0.049394
v 0.000000 -0.203448 0.049394
vt 0.788336 0.925738
vt 0.788336 0.925738
vt 0.788336 0.925738
vt 0.788336 0.925738
vt 0.555807 0.417274
vt 0.555807 0.417274
vt 0.555807 0.417274
vt 0.555807 0.417274
vt 0.555807 0.417274
vt 0.555807 0.417274
vt 0.007038 0.947441
vt 0.007038 0.947441
vt 0.007038 0.947441
vt 0.007038 0.947441
vt 0.555807 0.417274
vt 0.555807 0.417274
vt 0.007038 0.947441
vt 0.007038 0.947441
vt 0.007038 0.947441
vt 0.007038 0.947441
vt 0.007038 0.947441
vt 0.007038 0.947441
vt 0.007038 0.947441
vt 0.007038 0.947441
vt 0.788336 0.925738
vt 0.788336 0.925738
vt 0.555807 0.417274
vt 0.555807 0.417274
vt 0.555807 0.417274
vt 0.555807 0.417274
vt 0.007038 0.947441
vt 0.007038 0.947441
vt 0.007038 0.947441
vt 0.007038 0.947441
vt 0.007038 0.947441
vt 0.007038 0.947441
vn 0.0000 1.0000 0.0000
vn 1.0000 0.0000 0.0000
vn 0.0000 0.0000 -1.0000
vn 0.0000 0.0000 1.0000
vn 0.0000 -1.0000 0.0000
vn -1.0000 0.0000 0.0000
usemtl Base
s off
f 13/1/1 14/2/1 4/3/1 3/4/1
f 3/5/2 4/6/2 2/7/2 1/8/2
f 13/9/3 3/5/3 1/8/3 15/10/3
f 1/11/1 2/12/1 5/13/1 6/14/1
f 4/6/4 14/15/4 16/16/4 2/7/4
f 19/17/3 6/14/3 8/18/3 23/19/3
f 2/12/1 16/20/1 20/21/1 5/13/1
f 15/22/1 1/11/1 6/14/1 19/17/1
f 8/18/5 7/23/5 24/24/5 23/19/5
f 5/13/4 20/21/4 24/24/4 7/23/4
f 6/14/2 5/13/2 7/23/2 8/18/2
f 13/1/1 11/25/1 12/26/1 14/2/1
f 11/27/6 9/28/6 10/29/6 12/30/6
f 13/9/3 15/10/3 9/28/3 11/27/3
f 9/31/1 18/32/1 17/33/1 10/34/1
f 12/30/4 10/29/4 16/16/4 14/15/4
f 19/17/3 23/19/3 22/35/3 18/32/3
f 10/34/1 17/33/1 20/21/1 16/20/1
f 15/22/1 19/17/1 18/32/1 9/31/1
f 22/35/5 23/19/5 24/24/5 21/36/5
f 17/33/4 21/36/4 24/24/4 20/21/4
f 18/32/6 22/35/6 21/36/6 17/33/6
