# Blender v2.93.0 OBJ File: 'trees.blend'
# www.blender.org
mtllib tree-002.mtl
o Tree.002_Cube.001
v -0.150736 -0.150736 0.000000
v -0.101962 -0.101962 0.813938
v -0.150736 0.150736 0.000000
v -0.101962 0.101962 0.813938
v 0.150736 -0.150736 0.000000
v 0.101962 -0.101962 0.813938
v 0.150736 0.150736 0.000000
v 0.101962 0.101962 0.813938
v -0.504140 -0.504140 0.883966
v -0.504140 0.504140 0.883966
v 0.504140 0.504140 0.883966
v 0.504140 -0.504140 0.883966
v -0.462002 -0.462002 2.337921
v -0.462002 0.462002 2.337921
v 0.462002 0.462002 2.337921
v 0.462002 -0.462002 2.337921
v 0.745297 0.745298 1.273877
v 0.706659 0.706659 2.010856
v 0.706659 -0.706659 2.010855
v 0.745297 -0.745298 1.273876
v -0.745297 -0.745298 1.273877
v -0.706659 -0.706659 2.010856
v -0.706659 0.706659 2.010855
v -0.745297 0.745298 1.273876
vt 0.817941 0.450784
vt 0.817941 0.450784
vt 0.817941 0.450784
vt 0.817941 0.450784
vt 0.817941 0.450784
vt 0.817941 0.450784
vt 0.817941 0.450784
vt 0.817941 0.450784
vt 0.945902 0.805137
vt 0.945902 0.805137
vt 0.945902 0.805137
vt 0.945902 0.805137
vt 0.945902 0.805137
vt 0.945902 0.805137
vt 0.945902 0.805137
vt 0.945902 0.805137
vt 0.945902 0.805137
vt 0.945902 0.805137
vt 0.945902 0.805137
vt 0.945902 0.805137
vt 0.945902 0.805137
vt 0.945902 0.805137
vt 0.945902 0.805137
vt 0.945902 0.805137
vt 0.945902 0.805137
vt 0.945902 0.805137
vt 0.945902 0.805137
vt 0.945902 0.805137
vn -0.9982 0.0000 0.0598
vn 0.0000 0.9982 0.0598
vn 0.9982 0.0000 0.0598
vn 0.0000 -0.9982 0.0598
vn 0.1715 0.0000 -0.9852
vn 0.8008 -0.0000 0.5990
vn -0.1715 -0.0000 -0.9852
vn -0.0000 -0.1715 -0.9852
vn 0.0000 0.1715 -0.9852
vn -0.8008 0.0000 0.5990
vn 0.0000 -0.8008 0.5990
vn -0.0000 0.8008 0.5990
vn 0.0000 0.0000 1.0000
vn 0.0000 0.8505 -0.5260
vn -0.0000 0.9986 0.0524
vn -0.0000 -0.8505 -0.5260
vn 0.0000 -0.9986 0.0524
vn -0.8505 -0.0000 -0.5260
vn -0.9986 -0.0000 0.0524
vn 0.8505 0.0000 -0.5260
vn 0.9986 0.0000 0.0524
usemtl Tree
s off
f 1/1/1 2/2/1 4/3/1 3/4/1
f 3/4/2 4/3/2 8/5/2 7/6/2
f 7/6/3 8/5/3 6/7/3 5/8/3
f 5/8/4 6/7/4 2/2/4 1/1/4
f 6/9/5 8/10/5 11/11/5 12/12/5
f 19/13/6 18/14/6 15/15/6 16/16/6
f 4/17/7 2/18/7 9/19/7 10/20/7
f 2/18/8 6/9/8 12/12/8 9/19/8
f 8/10/9 4/17/9 10/20/9 11/11/9
f 23/21/10 22/22/10 13/23/10 14/24/10
f 22/22/11 19/13/11 16/16/11 13/23/11
f 18/14/12 23/21/12 14/24/12 15/15/12
f 13/23/13 16/16/13 15/15/13 14/24/13
f 11/11/14 10/20/14 24/25/14 17/26/14
f 17/26/15 24/25/15 23/21/15 18/14/15
f 9/19/16 12/12/16 20/27/16 21/28/16
f 21/28/17 20/27/17 19/13/17 22/22/17
f 10/20/18 9/19/18 21/28/18 24/25/18
f 24/25/19 21/28/19 22/22/19 23/21/19
f 12/12/20 11/11/20 17/26/20 20/27/20
f 20/27/21 17/26/21 18/14/21 19/13/21
