{
    "asset" : {
        "generator" : "Khronos glTF Blender I/O v1.6.16",
        "version" : "2.0"
    },
    "scene" : 0,
    "scenes" : [
        {
            "name" : "Scene",
            "nodes" : [
                0
            ]
        }
    ],
    "nodes" : [
        {
            "mesh" : 0,
            "name" : "Tower",
            "rotation" : [
                0,
                0,
                0,
                -1
            ],
            "scale" : [
                2.349508762359619,
                1.1969892978668213,
                2.3604230880737305
            ]
        }
    ],
    "materials" : [
        {
            "doubleSided" : true,
            "name" : "Material",
            "pbrMetallicRoughness" : {
                "baseColorTexture" : {
                    "index" : 0
                },
                "metallicFactor" : 0,
                "roughnessFactor" : 0.4000000059604645
            }
        },
        {
            "doubleSided" : true,
            "name" : "PlayerColor",
            "pbrMetallicRoughness" : {
                "baseColorFactor" : [
                    0.800000011920929,
                    0.800000011920929,
                    0.800000011920929,
                    1
                ],
                "metallicFactor" : 0,
                "roughnessFactor" : 0.5
            }
        }
    ],
    "meshes" : [
        {
            "name" : "Cube",
            "primitives" : [
                {
                    "attributes" : {
                        "POSITION" : 0,
                        "NORMAL" : 1,
                        "TEXCOORD_0" : 2
                    },
                    "indices" : 3,
                    "material" : 0
                },
                {
                    "attributes" : {
                        "POSITION" : 4,
                        "NORMAL" : 5,
                        "TEXCOORD_0" : 6
                    },
                    "indices" : 7,
                    "material" : 1
                }
            ]
        }
    ],
    "textures" : [
        {
            "sampler" : 0,
            "source" : 0
        }
    ],
    "images" : [
        {
            "bufferView" : 4,
            "mimeType" : "image/png",
            "name" : "ImphenziaPalette01-256-Gradient"
        }
    ],
    "accessors" : [
        {
            "bufferView" : 0,
            "componentType" : 5126,
            "count" : 3050,
            "max" : [
                0.6880118250846863,
                6.6798858642578125,
                0.7558770179748535
            ],
            "min" : [
                -0.8198401927947998,
                -0.0035491883754730225,
                -0.9387344121932983
            ],
            "type" : "VEC3"
        },
        {
            "bufferView" : 1,
            "componentType" : 5126,
            "count" : 3050,
            "type" : "VEC3"
        },
        {
            "bufferView" : 2,
            "componentType" : 5126,
            "count" : 3050,
            "type" : "VEC2"
        },
        {
            "bufferView" : 3,
            "componentType" : 5123,
            "count" : 4704,
            "type" : "SCALAR"
        },
        {
            "bufferView" : 5,
            "componentType" : 5126,
            "count" : 79,
            "max" : [
                0.8826433420181274,
                6.644474029541016,
                0.459835410118103
            ],
            "min" : [
                -0.45883500576019287,
                0.8760944604873657,
                -0.8969136476516724
            ],
            "type" : "VEC3"
        },
        {
            "bufferView" : 6,
            "componentType" : 5126,
            "count" : 79,
            "type" : "VEC3"
        },
        {
            "bufferView" : 7,
            "componentType" : 5126,
            "count" : 79,
            "type" : "VEC2"
        },
        {
            "bufferView" : 8,
            "componentType" : 5123,
            "count" : 111,
            "type" : "SCALAR"
        }
    ],
    "bufferViews" : [
        {
            "buffer" : 0,
            "byteLength" : 36600,
            "byteOffset" : 0
        },
        {
            "buffer" : 0,
            "byteLength" : 36600,
            "byteOffset" : 36600
        },
        {
            "buffer" : 0,
            "byteLength" : 24400,
            "byteOffset" : 73200
        },
        {
            "buffer" : 0,
            "byteLength" : 9408,
            "byteOffset" : 97600
        },
        {
            "buffer" : 0,
            "byteLength" : 5034,
            "byteOffset" : 107008
        },
        {
            "buffer" : 0,
            "byteLength" : 948,
            "byteOffset" : 112044
        },
        {
            "buffer" : 0,
            "byteLength" : 948,
            "byteOffset" : 112992
        },
        {
            "buffer" : 0,
            "byteLength" : 632,
            "byteOffset" : 113940
        },
        {
            "buffer" : 0,
            "byteLength" : 222,
            "byteOffset" : 114572
        }
    ],
    "samplers" : [
        {
            "magFilter" : 9728,
            "minFilter" : 9984
        }
    ],
    "buffers" : [
        {
            "byteLength" : 114796,
            "uri" : "data:application/octet-stream;base64,"
        }
    ]
}
