{
    "asset" : {
        "generator" : "Khronos glTF Blender I/O v1.6.16",
        "version" : "2.0"
    },
    "scene" : 0,
    "scenes" : [
        {
            "name" : "Scene",
            "nodes" : [
                0
            ]
        }
    ],
    "nodes" : [
        {
            "mesh" : 0,
            "name" : "Barracks",
            "rotation" : [
                0,
                0,
                0,
                -1
            ],
            "scale" : [
                4,
                2,
                4
            ]
        }
    ],
    "materials" : [
        {
            "doubleSided" : true,
            "name" : "Material",
            "pbrMetallicRoughness" : {
                "baseColorTexture" : {
                    "index" : 0
                },
                "metallicFactor" : 0,
                "roughnessFactor" : 0.4000000059604645
            }
        },
        {
            "doubleSided" : true,
            "name" : "PlayerColor",
            "pbrMetallicRoughness" : {
                "baseColorFactor" : [
                    0.800000011920929,
                    0.800000011920929,
                    0.800000011920929,
                    1
                ],
                "metallicFactor" : 0,
                "roughnessFactor" : 0.5
            }
        }
    ],
    "meshes" : [
        {
            "name" : "Cube",
            "primitives" : [
                {
                    "attributes" : {
                        "POSITION" : 0,
                        "NORMAL" : 1,
                        "TEXCOORD_0" : 2
                    },
                    "indices" : 3,
                    "material" : 0
                },
                {
                    "attributes" : {
                        "POSITION" : 4,
                        "NORMAL" : 5,
                        "TEXCOORD_0" : 6
                    },
                    "indices" : 7,
                    "material" : 1
                }
            ]
        }
    ],
    "textures" : [
        {
            "sampler" : 0,
            "source" : 0
        }
    ],
    "images" : [
        {
            "bufferView" : 4,
            "mimeType" : "image/png",
            "name" : "ImphenziaPalette01-256-Gradient"
        }
    ],
    "accessors" : [
        {
            "bufferView" : 0,
            "componentType" : 5126,
            "count" : 4748,
            "max" : [
                1,
                2.7005951404571533,
                1.0916401147842407
            ],
            "min" : [
                -1,
                -6.80738398983749e-09,
                -1
            ],
            "type" : "VEC3"
        },
        {
            "bufferView" : 1,
            "componentType" : 5126,
            "count" : 4748,
            "type" : "VEC3"
        },
        {
            "bufferView" : 2,
            "componentType" : 5126,
            "count" : 4748,
            "type" : "VEC2"
        },
        {
            "bufferView" : 3,
            "componentType" : 5123,
            "count" : 7458,
            "type" : "SCALAR"
        },
        {
            "bufferView" : 5,
            "componentType" : 5126,
            "count" : 90,
            "max" : [
                1.1972657442092896,
                2.665181875228882,
                0.8712354898452759
            ],
            "min" : [
                -0.8438221216201782,
                1.0260703563690186,
                -0.8438220620155334
            ],
            "type" : "VEC3"
        },
        {
            "bufferView" : 6,
            "componentType" : 5126,
            "count" : 90,
            "type" : "VEC3"
        },
        {
            "bufferView" : 7,
            "componentType" : 5126,
            "count" : 90,
            "type" : "VEC2"
        },
        {
            "bufferView" : 8,
            "componentType" : 5123,
            "count" : 114,
            "type" : "SCALAR"
        }
    ],
    "bufferViews" : [
        {
            "buffer" : 0,
            "byteLength" : 56976,
            "byteOffset" : 0
        },
        {
            "buffer" : 0,
            "byteLength" : 56976,
            "byteOffset" : 56976
        },
        {
            "buffer" : 0,
            "byteLength" : 37984,
            "byteOffset" : 113952
        },
        {
            "buffer" : 0,
            "byteLength" : 14916,
            "byteOffset" : 151936
        },
        {
            "buffer" : 0,
            "byteLength" : 5034,
            "byteOffset" : 166852
        },
        {
            "buffer" : 0,
            "byteLength" : 1080,
            "byteOffset" : 171888
        },
        {
            "buffer" : 0,
            "byteLength" : 1080,
            "byteOffset" : 172968
        },
        {
            "buffer" : 0,
            "byteLength" : 720,
            "byteOffset" : 174048
        },
        {
            "buffer" : 0,
            "byteLength" : 228,
            "byteOffset" : 174768
        }
    ],
    "samplers" : [
        {
            "magFilter" : 9728,
            "minFilter" : 9984
        }
    ],
    "buffers" : [
        {
            "byteLength" : 174996,
            "uri" : "data:application/octet-stream;base64,"
        }
    ]
}
