{
    "asset" : {
        "generator" : "Khronos glTF Blender I/O v1.6.16",
        "version" : "2.0"
    },
    "scene" : 0,
    "scenes" : [
        {
            "name" : "Scene",
            "nodes" : [
                0
            ]
        }
    ],
    "nodes" : [
        {
            "mesh" : 0,
            "name" : "Mine",
            "rotation" : [
                0,
                -0.9977802038192749,
                0,
                0.06659345328807831
            ],
            "scale" : [
                2.349508762359619,
                1.1969892978668213,
                2.3604230880737305
            ]
        }
    ],
    "materials" : [
        {
            "doubleSided" : true,
            "name" : "Material",
            "pbrMetallicRoughness" : {
                "baseColorTexture" : {
                    "index" : 0
                },
                "metallicFactor" : 0,
                "roughnessFactor" : 0.4000000059604645
            }
        },
        {
            "doubleSided" : true,
            "name" : "PlayerColor",
            "pbrMetallicRoughness" : {
                "baseColorFactor" : [
                    0.800000011920929,
                    0.800000011920929,
                    0.800000011920929,
                    1
                ],
                "metallicFactor" : 0,
                "roughnessFactor" : 0.5
            }
        }
    ],
    "meshes" : [
        {
            "name" : "Cube.002",
            "primitives" : [
                {
                    "attributes" : {
                        "POSITION" : 0,
                        "NORMAL" : 1,
                        "TEXCOORD_0" : 2
                    },
                    "indices" : 3,
                    "material" : 0
                },
                {
                    "attributes" : {
                        "POSITION" : 4,
                        "NORMAL" : 5,
                        "TEXCOORD_0" : 6
                    },
                    "indices" : 7,
                    "material" : 1
                }
            ]
        }
    ],
    "textures" : [
        {
            "sampler" : 0,
            "source" : 0
        }
    ],
    "images" : [
        {
            "bufferView" : 4,
            "mimeType" : "image/png",
            "name" : "ImphenziaPalette01-256-Gradient"
        }
    ],
    "accessors" : [
        {
            "bufferView" : 0,
            "componentType" : 5126,
            "count" : 1989,
            "max" : [
                1.498958706855774,
                2.2711780071258545,
                1.251408576965332
            ],
            "min" : [
                -1.4903488159179688,
                -3.725290298461914e-09,
                -1.5309247970581055
            ],
            "type" : "VEC3"
        },
        {
            "bufferView" : 1,
            "componentType" : 5126,
            "count" : 1989,
            "type" : "VEC3"
        },
        {
            "bufferView" : 2,
            "componentType" : 5126,
            "count" : 1989,
            "type" : "VEC2"
        },
        {
            "bufferView" : 3,
            "componentType" : 5123,
            "count" : 2940,
            "type" : "SCALAR"
        },
        {
            "bufferView" : 5,
            "componentType" : 5126,
            "count" : 4,
            "max" : [
                -0.09992457926273346,
                1.1473183631896973,
                -0.3757795989513397
            ],
            "min" : [
                -1.064011812210083,
                1.1473183631896973,
                -1.3445593118667603
            ],
            "type" : "VEC3"
        },
        {
            "bufferView" : 6,
            "componentType" : 5126,
            "count" : 4,
            "type" : "VEC3"
        },
        {
            "bufferView" : 7,
            "componentType" : 5126,
            "count" : 4,
            "type" : "VEC2"
        },
        {
            "bufferView" : 8,
            "componentType" : 5123,
            "count" : 6,
            "type" : "SCALAR"
        }
    ],
    "bufferViews" : [
        {
            "buffer" : 0,
            "byteLength" : 23868,
            "byteOffset" : 0
        },
        {
            "buffer" : 0,
            "byteLength" : 23868,
            "byteOffset" : 23868
        },
        {
            "buffer" : 0,
            "byteLength" : 15912,
            "byteOffset" : 47736
        },
        {
            "buffer" : 0,
            "byteLength" : 5880,
            "byteOffset" : 63648
        },
        {
            "buffer" : 0,
            "byteLength" : 5034,
            "byteOffset" : 69528
        },
        {
            "buffer" : 0,
            "byteLength" : 48,
            "byteOffset" : 74564
        },
        {
            "buffer" : 0,
            "byteLength" : 48,
            "byteOffset" : 74612
        },
        {
            "buffer" : 0,
            "byteLength" : 32,
            "byteOffset" : 74660
        },
        {
            "buffer" : 0,
            "byteLength" : 12,
            "byteOffset" : 74692
        }
    ],
    "samplers" : [
        {
            "magFilter" : 9728,
            "minFilter" : 9984
        }
    ],
    "buffers" : [
        {
            "byteLength" : 74704,
            "uri" : "data:application/octet-stream;base64,"
        }
    ]
}
