{
    "asset" : {
        "generator" : "Khronos glTF Blender I/O v1.6.16",
        "version" : "2.0"
    },
    "scene" : 0,
    "scenes" : [
        {
            "name" : "Scene",
            "nodes" : [
                0
            ]
        }
    ],
    "nodes" : [
        {
            "mesh" : 0,
            "name" : "Forge",
            "rotation" : [
                0,
                -0.50345778465271,
                0,
                0.8640198111534119
            ],
            "scale" : [
                1.49686861038208,
                0.7626001238822937,
                1.5038220882415771
            ],
            "translation" : [
                -1.0330333709716797,
                0,
                2.000209331512451
            ]
        }
    ],
    "materials" : [
        {
            "doubleSided" : true,
            "name" : "Material",
            "pbrMetallicRoughness" : {
                "baseColorTexture" : {
                    "index" : 0
                },
                "metallicFactor" : 0,
                "roughnessFactor" : 0.4000000059604645
            }
        },
        {
            "doubleSided" : true,
            "name" : "PlayerColor",
            "pbrMetallicRoughness" : {
                "baseColorFactor" : [
                    0.800000011920929,
                    0.800000011920929,
                    0.800000011920929,
                    1
                ],
                "metallicFactor" : 0,
                "roughnessFactor" : 0.5
            }
        }
    ],
    "meshes" : [
        {
            "name" : "Cube.005",
            "primitives" : [
                {
                    "attributes" : {
                        "POSITION" : 0,
                        "NORMAL" : 1,
                        "TEXCOORD_0" : 2
                    },
                    "indices" : 3,
                    "material" : 0
                },
                {
                    "attributes" : {
                        "POSITION" : 4,
                        "NORMAL" : 5,
                        "TEXCOORD_0" : 6
                    },
                    "indices" : 7,
                    "material" : 1
                }
            ]
        }
    ],
    "textures" : [
        {
            "sampler" : 0,
            "source" : 0
        }
    ],
    "images" : [
        {
            "bufferView" : 4,
            "mimeType" : "image/png",
            "name" : "ImphenziaPalette01-256-Gradient"
        }
    ],
    "accessors" : [
        {
            "bufferView" : 0,
            "componentType" : 5126,
            "count" : 3156,
            "max" : [
                1.5617942810058594,
                5.976282596588135,
                0.7077621817588806
            ],
            "min" : [
                -3.3403754234313965,
                -8.644414629088715e-05,
                -3.800783634185791
            ],
            "type" : "VEC3"
        },
        {
            "bufferView" : 1,
            "componentType" : 5126,
            "count" : 3156,
            "type" : "VEC3"
        },
        {
            "bufferView" : 2,
            "componentType" : 5126,
            "count" : 3156,
            "type" : "VEC2"
        },
        {
            "bufferView" : 3,
            "componentType" : 5123,
            "count" : 4788,
            "type" : "SCALAR"
        },
        {
            "bufferView" : 5,
            "componentType" : 5126,
            "count" : 128,
            "max" : [
                0.4770470857620239,
                5.976282596588135,
                0.03986048698425293
            ],
            "min" : [
                -2.8170366287231445,
                2.622606039047241,
                -3.800783634185791
            ],
            "type" : "VEC3"
        },
        {
            "bufferView" : 6,
            "componentType" : 5126,
            "count" : 128,
            "type" : "VEC3"
        },
        {
            "bufferView" : 7,
            "componentType" : 5126,
            "count" : 128,
            "type" : "VEC2"
        },
        {
            "bufferView" : 8,
            "componentType" : 5123,
            "count" : 192,
            "type" : "SCALAR"
        }
    ],
    "bufferViews" : [
        {
            "buffer" : 0,
            "byteLength" : 37872,
            "byteOffset" : 0
        },
        {
            "buffer" : 0,
            "byteLength" : 37872,
            "byteOffset" : 37872
        },
        {
            "buffer" : 0,
            "byteLength" : 25248,
            "byteOffset" : 75744
        },
        {
            "buffer" : 0,
            "byteLength" : 9576,
            "byteOffset" : 100992
        },
        {
            "buffer" : 0,
            "byteLength" : 5034,
            "byteOffset" : 110568
        },
        {
            "buffer" : 0,
            "byteLength" : 1536,
            "byteOffset" : 115604
        },
        {
            "buffer" : 0,
            "byteLength" : 1536,
            "byteOffset" : 117140
        },
        {
            "buffer" : 0,
            "byteLength" : 1024,
            "byteOffset" : 118676
        },
        {
            "buffer" : 0,
            "byteLength" : 384,
            "byteOffset" : 119700
        }
    ],
    "samplers" : [
        {
            "magFilter" : 9728,
            "minFilter" : 9984
        }
    ],
    "buffers" : [
        {
            "byteLength" : 120084,
            "uri" : "data:application/octet-stream;base64,"
        }
    ]
}
