{
    "asset" : {
        "generator" : "Khronos glTF Blender I/O v1.6.16",
        "version" : "2.0"
    },
    "scene" : 0,
    "scenes" : [
        {
            "name" : "Scene",
            "nodes" : [
                0
            ]
        }
    ],
    "nodes" : [
        {
            "mesh" : 0,
            "name" : "WoodcutterHut",
            "rotation" : [
                0,
                0,
                0,
                -1
            ],
            "scale" : [
                2.349508762359619,
                1.1969892978668213,
                2.3604230880737305
            ]
        }
    ],
    "materials" : [
        {
            "doubleSided" : true,
            "name" : "Material",
            "pbrMetallicRoughness" : {
                "baseColorTexture" : {
                    "index" : 0
                },
                "metallicFactor" : 0,
                "roughnessFactor" : 0.4000000059604645
            }
        },
        {
            "doubleSided" : true,
            "name" : "PlayerColor",
            "pbrMetallicRoughness" : {
                "baseColorFactor" : [
                    0.800000011920929,
                    0.800000011920929,
                    0.800000011920929,
                    1
                ],
                "metallicFactor" : 0,
                "roughnessFactor" : 0.5
            }
        }
    ],
    "meshes" : [
        {
            "name" : "Cube",
            "primitives" : [
                {
                    "attributes" : {
                        "POSITION" : 0,
                        "NORMAL" : 1,
                        "TEXCOORD_0" : 2
                    },
                    "indices" : 3,
                    "material" : 0
                },
                {
                    "attributes" : {
                        "POSITION" : 4,
                        "NORMAL" : 5,
                        "TEXCOORD_0" : 6
                    },
                    "indices" : 7,
                    "material" : 1
                }
            ]
        }
    ],
    "textures" : [
        {
            "sampler" : 0,
            "source" : 0
        }
    ],
    "images" : [
        {
            "bufferView" : 4,
            "mimeType" : "image/png",
            "name" : "ImphenziaPalette01-256-Gradient"
        }
    ],
    "accessors" : [
        {
            "bufferView" : 0,
            "componentType" : 5126,
            "count" : 1829,
            "max" : [
                1.0899640321731567,
                2.3858280181884766,
                1.0396058559417725
            ],
            "min" : [
                -1.5379256010055542,
                -0.011620432138442993,
                -0.6399452090263367
            ],
            "type" : "VEC3"
        },
        {
            "bufferView" : 1,
            "componentType" : 5126,
            "count" : 1829,
            "type" : "VEC3"
        },
        {
            "bufferView" : 2,
            "componentType" : 5126,
            "count" : 1829,
            "type" : "VEC2"
        },
        {
            "bufferView" : 3,
            "componentType" : 5123,
            "count" : 2766,
            "type" : "SCALAR"
        },
        {
            "bufferView" : 5,
            "componentType" : 5126,
            "count" : 80,
            "max" : [
                0.7142117023468018,
                2.254854679107666,
                0.5199474096298218
            ],
            "min" : [
                -0.7142115235328674,
                1.0216503143310547,
                -0.5199471712112427
            ],
            "type" : "VEC3"
        },
        {
            "bufferView" : 6,
            "componentType" : 5126,
            "count" : 80,
            "type" : "VEC3"
        },
        {
            "bufferView" : 7,
            "componentType" : 5126,
            "count" : 80,
            "type" : "VEC2"
        },
        {
            "bufferView" : 8,
            "componentType" : 5123,
            "count" : 120,
            "type" : "SCALAR"
        }
    ],
    "bufferViews" : [
        {
            "buffer" : 0,
            "byteLength" : 21948,
            "byteOffset" : 0
        },
        {
            "buffer" : 0,
            "byteLength" : 21948,
            "byteOffset" : 21948
        },
        {
            "buffer" : 0,
            "byteLength" : 14632,
            "byteOffset" : 43896
        },
        {
            "buffer" : 0,
            "byteLength" : 5532,
            "byteOffset" : 58528
        },
        {
            "buffer" : 0,
            "byteLength" : 5034,
            "byteOffset" : 64060
        },
        {
            "buffer" : 0,
            "byteLength" : 960,
            "byteOffset" : 69096
        },
        {
            "buffer" : 0,
            "byteLength" : 960,
            "byteOffset" : 70056
        },
        {
            "buffer" : 0,
            "byteLength" : 640,
            "byteOffset" : 71016
        },
        {
            "buffer" : 0,
            "byteLength" : 240,
            "byteOffset" : 71656
        }
    ],
    "samplers" : [
        {
            "magFilter" : 9728,
            "minFilter" : 9984
        }
    ],
    "buffers" : [
        {
            "byteLength" : 71896,
            "uri" : "data:application/octet-stream;base64,"
        }
    ]
}
