{
    "asset" : {
        "generator" : "Khronos glTF Blender I/O v1.6.16",
        "version" : "2.0"
    },
    "scene" : 0,
    "scenes" : [
        {
            "name" : "Scene",
            "nodes" : [
                0
            ]
        }
    ],
    "nodes" : [
        {
            "mesh" : 0,
            "name" : "Well",
            "rotation" : [
                0,
                0,
                0,
                -1
            ],
            "scale" : [
                1,
                1.202759861946106,
                1
            ]
        }
    ],
    "materials" : [
        {
            "doubleSided" : true,
            "name" : "Material",
            "pbrMetallicRoughness" : {
                "baseColorTexture" : {
                    "index" : 0
                },
                "metallicFactor" : 0,
                "roughnessFactor" : 0.4000000059604645
            }
        },
        {
            "doubleSided" : true,
            "name" : "PlayerColor",
            "pbrMetallicRoughness" : {
                "baseColorFactor" : [
                    0.800000011920929,
                    0.800000011920929,
                    0.800000011920929,
                    1
                ],
                "metallicFactor" : 0,
                "roughnessFactor" : 0.5
            }
        }
    ],
    "meshes" : [
        {
            "name" : "Cube.003",
            "primitives" : [
                {
                    "attributes" : {
                        "POSITION" : 0,
                        "NORMAL" : 1,
                        "TEXCOORD_0" : 2
                    },
                    "indices" : 3,
                    "material" : 0
                },
                {
                    "attributes" : {
                        "POSITION" : 4,
                        "NORMAL" : 5,
                        "TEXCOORD_0" : 6
                    },
                    "indices" : 7,
                    "material" : 1
                }
            ]
        }
    ],
    "textures" : [
        {
            "sampler" : 0,
            "source" : 0
        }
    ],
    "images" : [
        {
            "bufferView" : 4,
            "mimeType" : "image/png",
            "name" : "ImphenziaPalette01-256-Gradient"
        }
    ],
    "accessors" : [
        {
            "bufferView" : 0,
            "componentType" : 5126,
            "count" : 3510,
            "max" : [
                2.5951874256134033,
                3.2882790565490723,
                2.0572352409362793
            ],
            "min" : [
                -1.8057211637496948,
                -0.0004073475720360875,
                -2.2184243202209473
            ],
            "type" : "VEC3"
        },
        {
            "bufferView" : 1,
            "componentType" : 5126,
            "count" : 3510,
            "type" : "VEC3"
        },
        {
            "bufferView" : 2,
            "componentType" : 5126,
            "count" : 3510,
            "type" : "VEC2"
        },
        {
            "bufferView" : 3,
            "componentType" : 5123,
            "count" : 6294,
            "type" : "SCALAR"
        },
        {
            "bufferView" : 5,
            "componentType" : 5126,
            "count" : 16,
            "max" : [
                1.0944421291351318,
                3.1042919158935547,
                1.2790706157684326
            ],
            "min" : [
                -1.0944421291351318,
                2.565126895904541,
                -1.2790706157684326
            ],
            "type" : "VEC3"
        },
        {
            "bufferView" : 6,
            "componentType" : 5126,
            "count" : 16,
            "type" : "VEC3"
        },
        {
            "bufferView" : 7,
            "componentType" : 5126,
            "count" : 16,
            "type" : "VEC2"
        },
        {
            "bufferView" : 8,
            "componentType" : 5123,
            "count" : 24,
            "type" : "SCALAR"
        }
    ],
    "bufferViews" : [
        {
            "buffer" : 0,
            "byteLength" : 42120,
            "byteOffset" : 0
        },
        {
            "buffer" : 0,
            "byteLength" : 42120,
            "byteOffset" : 42120
        },
        {
            "buffer" : 0,
            "byteLength" : 28080,
            "byteOffset" : 84240
        },
        {
            "buffer" : 0,
            "byteLength" : 12588,
            "byteOffset" : 112320
        },
        {
            "buffer" : 0,
            "byteLength" : 5034,
            "byteOffset" : 124908
        },
        {
            "buffer" : 0,
            "byteLength" : 192,
            "byteOffset" : 129944
        },
        {
            "buffer" : 0,
            "byteLength" : 192,
            "byteOffset" : 130136
        },
        {
            "buffer" : 0,
            "byteLength" : 128,
            "byteOffset" : 130328
        },
        {
            "buffer" : 0,
            "byteLength" : 48,
            "byteOffset" : 130456
        }
    ],
    "samplers" : [
        {
            "magFilter" : 9728,
            "minFilter" : 9984
        }
    ],
    "buffers" : [
        {
            "byteLength" : 130504,
            "uri" : "data:application/octet-stream;base64,"
        }
    ]
}
