# Blender v2.93.0 OBJ File: 'rocks.blend'
# www.blender.org
mtllib rock-002.mtl
o Rock.002_Cube.004
v 0.451817 0.437698 0.533438
v 0.693610 0.699260 0.000000
v 0.523619 -0.499368 0.486113
v 0.625421 -0.577790 -0.000019
v -0.420252 0.467599 0.466156
v -0.578076 0.554402 0.000000
v -0.484884 -0.513338 0.510377
v -0.633057 -0.587009 0.002236
v 0.028996 -0.596278 0.469774
v 0.078912 0.746607 0.000000
v 0.157824 0.569427 0.596568
v -0.071288 -0.793351 -0.002310
v 0.792903 -0.007891 0.000000
v -0.476435 -0.067959 0.649796
v -0.751683 -0.000000 0.000000
v 0.593410 -0.120515 0.602929
v -0.014381 0.073191 0.680933
vt 0.322824 0.952784
vt 0.322824 0.952784
vt 0.322824 0.952784
vt 0.322824 0.952784
vt 0.322824 0.952784
vt 0.322824 0.952784
vt 0.322824 0.952784
vt 0.322824 0.952784
vt 0.322824 0.952784
vt 0.322824 0.952784
vt 0.322824 0.952784
vt 0.322824 0.952784
vt 0.322824 0.952784
vt 0.322824 0.952784
vt 0.322824 0.952784
vt 0.322824 0.952784
vt 0.322824 0.952784
vn 0.0271 -0.2991 0.9538
vn -0.2343 -0.9202 0.3136
vn 0.2042 0.9023 0.3798
vn -0.8900 0.2517 0.3803
vn 0.9318 -0.2637 0.2495
vn -0.2504 0.9251 0.2856
vn 0.2405 -0.9328 0.2686
vn 0.2008 0.1357 0.9702
vn 0.8918 0.1923 0.4096
vn -0.9291 -0.1444 0.3405
vn -0.2126 0.2895 0.9333
usemtl Rock
s off
f 17/1/1 14/2/1 7/3/1 9/4/1
f 12/5/2 9/4/2 7/3/2 8/6/2
f 10/7/3 11/8/3 1/9/3 2/10/3
f 15/11/4 14/2/4 5/12/4 6/13/4
f 13/14/5 16/15/5 3/16/5 4/17/5
f 6/13/6 5/12/6 11/8/6 10/7/6
f 4/17/7 3/16/7 9/4/7 12/5/7
f 16/15/1 17/1/1 9/4/1 3/16/1
f 1/9/8 11/8/8 17/1/8 16/15/8
f 2/10/9 1/9/9 16/15/9 13/14/9
f 8/6/10 7/3/10 14/2/10 15/11/10
f 11/8/11 5/12/11 14/2/11 17/1/11
