# Blender v2.93.0 OBJ File: 'rocks.blend'
# www.blender.org
mtllib rock-001.mtl
o Rock.001_Cube.003
v -0.026248 -0.402958 1.419627
v 0.015933 0.749923 0.000000
v -0.003597 0.249174 1.245005
v -0.000000 -0.699322 0.000000
v 0.394537 0.240626 1.016917
v 0.588337 0.572561 0.000000
v 0.411646 -0.266062 1.224216
v 0.843130 -0.264203 0.000000
v -0.483821 0.232603 1.102921
v -0.644322 0.548931 0.000000
v -0.330212 -0.334943 1.317044
v -0.616381 -0.427122 0.000000
v 0.505160 -0.449581 1.121727
v 0.138583 -0.564180 1.285312
v 0.160557 -0.812277 0.096893
v 0.866370 -0.448024 0.096893
vt 0.312981 0.942941
vt 0.312981 0.942941
vt 0.312981 0.942941
vt 0.312981 0.942941
vt 0.312981 0.942941
vt 0.312981 0.942941
vt 0.312981 0.942941
vt 0.312981 0.942941
vt 0.312981 0.942941
vt 0.312981 0.942941
vt 0.312981 0.942941
vt 0.312981 0.942941
vt 0.312981 0.942941
vt 0.312981 0.942941
vt 0.312981 0.942941
vt 0.000000 0.000000
vt 0.000000 0.000000
vt 0.000000 0.000000
vt 0.000000 0.000000
vt 0.312981 0.942941
vn -0.2165 0.9179 0.3324
vn -0.2712 0.2657 0.9251
vn 0.4234 -0.8894 0.1724
vn 0.3979 0.2855 0.8719
vn 0.9272 0.2329 0.2934
vn -0.9807 -0.0914 0.1726
vn 0.2231 -0.4323 -0.8737
vn 0.2557 0.8992 0.3551
vn 0.4578 -0.2441 0.8549
vn 0.9045 0.2826 0.3192
vn -0.3581 -0.9191 0.1645
vn -0.6273 -0.7646 0.1480
usemtl Rock
s off
f 10/1/1 9/2/1 3/3/1 2/4/1
f 3/3/2 9/2/2 11/5/2 1/6/2
f 13/7/3 14/8/3 15/9/3 16/10/3
f 5/11/4 3/3/4 1/6/4 7/12/4
f 6/13/5 5/11/5 7/12/5 8/14/5
f 12/15/6 11/5/6 9/2/6 10/1/6
f 4/16/7 8/17/7 16/18/7 15/19/7
f 2/4/8 3/3/8 5/11/8 6/13/8
f 7/12/9 1/6/9 14/8/9 13/7/9
f 8/14/10 7/12/10 13/7/10 16/10/10
f 11/5/11 12/15/11 4/20/11 1/6/11
f 1/6/12 4/20/12 15/9/12 14/8/12
