# Blender v2.93.0 OBJ File: 'trees.blend'
# www.blender.org
mtllib tree-001.mtl
o Tree.001_Cube
v -0.113123 -0.112948 0.000000
v -0.113123 -0.112948 0.600000
v -0.113123 0.112948 0.000000
v -0.113123 0.112948 0.600000
v 0.113123 -0.112948 0.000000
v 0.113123 -0.112948 0.600000
v 0.113123 0.112948 0.000000
v 0.113123 0.112948 0.600000
v -0.608589 -0.608589 0.600000
v -0.608589 0.608589 0.600000
v 0.608589 0.608589 0.600000
v 0.608589 -0.608589 0.600000
v -0.229242 -0.229242 1.392610
v -0.229242 0.229242 1.392610
v 0.229242 0.229242 1.392610
v 0.229242 -0.229242 1.392610
v -0.473622 -0.473623 1.227951
v -0.473622 0.473623 1.227951
v 0.473622 0.473623 1.227951
v 0.473622 -0.473623 1.227951
v -0.212600 -0.212600 1.822966
v -0.212600 0.212600 1.822966
v 0.212600 0.212600 1.822966
v 0.212600 -0.212600 1.822966
v -0.331166 -0.331167 1.822966
v -0.331166 0.331167 1.822966
v 0.331166 0.331167 1.822966
v 0.331166 -0.331167 1.822966
v 0.000000 0.000000 2.509389
vt 0.817941 0.450784
vt 0.817941 0.450784
vt 0.817941 0.450784
vt 0.817941 0.450784
vt 0.817941 0.450784
vt 0.817941 0.450784
vt 0.817941 0.450784
vt 0.817941 0.450784
vt 0.945902 0.805137
vt 0.945902 0.805137
vt 0.945902 0.805137
vt 0.945902 0.805137
vt 0.945902 0.805137
vt 0.945902 0.805137
vt 0.945902 0.805137
vt 0.945902 0.805137
vt 0.945902 0.805137
vt 0.945902 0.805137
vt 0.945902 0.805137
vt 0.945902 0.805137
vt 0.945902 0.805137
vt 0.945902 0.805137
vt 0.945902 0.805137
vt 0.945902 0.805137
vt 0.945902 0.805137
vt 0.945902 0.805137
vt 0.945902 0.805137
vt 0.945902 0.805137
vt 0.945902 0.805137
vt 0.945902 0.805137
vt 0.945902 0.805137
vt 0.945902 0.805137
vt 0.945902 0.805137
vn -1.0000 0.0000 0.0000
vn 0.0000 1.0000 0.0000
vn 1.0000 0.0000 0.0000
vn -0.0000 -1.0000 0.0000
vn 0.0000 0.0000 -1.0000
vn 0.9020 0.0000 0.4317
vn -0.0000 0.5588 -0.8293
vn -0.9020 -0.0000 0.4317
vn -0.0000 -0.9020 0.4317
vn 0.0000 0.9020 0.4317
vn 0.9158 0.0000 0.4017
vn 0.0000 -0.5588 -0.8293
vn -0.5588 -0.0000 -0.8293
vn 0.5588 0.0000 -0.8293
vn -0.9158 -0.0000 0.4017
vn 0.0000 -0.9158 0.4017
vn -0.0000 0.9158 0.4017
vn 0.0000 -0.9007 0.4345
vn 0.0000 0.9007 0.4345
vn 0.9007 0.0000 0.4345
vn -0.9007 -0.0000 0.4345
usemtl Tree
s off
f 1/1/1 2/2/1 4/3/1 3/4/1
f 3/4/2 4/3/2 8/5/2 7/6/2
f 7/6/3 8/5/3 6/7/3 5/8/3
f 5/8/4 6/7/4 2/2/4 1/1/4
f 6/9/5 8/10/5 11/11/5 12/12/5
f 12/12/6 11/11/6 15/13/6 16/14/6
f 4/15/5 2/16/5 9/17/5 10/18/5
f 2/16/5 6/9/5 12/12/5 9/17/5
f 8/10/5 4/15/5 10/18/5 11/11/5
f 13/19/7 16/14/7 20/20/7 17/21/7
f 10/18/8 9/17/8 13/19/8 14/22/8
f 9/17/9 12/12/9 16/14/9 13/19/9
f 11/11/10 10/18/10 14/22/10 15/13/10
f 20/20/11 19/23/11 23/24/11 24/25/11
f 15/13/12 14/22/12 18/26/12 19/23/12
f 16/14/13 15/13/13 19/23/13 20/20/13
f 14/22/14 13/19/14 17/21/14 18/26/14
f 22/27/5 21/28/5 25/29/5 26/30/5
f 18/26/15 17/21/15 21/28/15 22/27/15
f 17/21/16 20/20/16 24/25/16 21/28/16
f 19/23/17 18/26/17 22/27/17 23/24/17
f 25/29/18 28/31/18 29/32/18
f 21/28/5 24/25/5 28/31/5 25/29/5
f 23/24/5 22/27/5 26/30/5 27/33/5
f 24/25/5 23/24/5 27/33/5 28/31/5
f 27/33/19 26/30/19 29/32/19
f 28/31/20 27/33/20 29/32/20
f 26/30/21 25/29/21 29/32/21
